<?xml version="1.0" encoding="utf-8"?>
<!-- Generator: Adobe Illustrator 26.3.1, SVG Export Plug-In . SVG Version: 6.00 Build 0)  -->
<svg version="1.1" id="Ebene_1" xmlns="http://www.w3.org/2000/svg" xmlns:xlink="http://www.w3.org/1999/xlink" x="0px" y="0px"
	 viewBox="0 0 75 75" style="enable-background:new 0 0 75 75;" xml:space="preserve">
<style type="text/css">
	.st0{display:none;fill:#2D2D2D;}
	.st1{fill:#FFFFFF;}
</style>
<path class="st0" d="M57.2,9.1c-4.6-2-9.4-2-14.1-1.2c-4,0.7-7.8,2.2-11.5,4c-3.8,1.8-7.4,3.9-10.6,6.5c-3.3,2.6-6.1,5.7-7.8,9.6
	c-1.3,2.8-1.3,5.5,0.2,8.2c1.6,2.7,3.8,4.8,6.3,6.7c2.6,1.9,5.3,3.8,8,5.7c-0.1,0.1-0.2,0.2-0.3,0.3c-2.9,1.6-5.8,3.3-8.4,5.5
	c-2.8,2.3-4.4,5.1-4,8.8c0.2,1.6,1.3,3.7,2.9,4.1c2,0.5,4.1,0.5,6.1,0c2.8-0.7,5-2.3,6.8-4.5c2-2.5,2.8-5.5,2.9-8.6
	c0-1.4-0.4-2.9-0.6-4.4c0.2-0.1,0.5-0.2,0.8-0.2c1.2-0.1,2.4-0.2,3.5-0.2c2.6,0,5,0.6,7.1,2.3c2.6,2,3.4,5.7,0.1,7.7
	c-0.3,0.2-0.4,0.5-0.7,0.7c0.1,0.1,0.2,0.2,0.2,0.3c0.4,0,0.9,0,1.2-0.1c2.6-1.2,3.7-3.5,3.2-6.1c-0.6-3.5-3-5.7-6.2-6.9
	c-3.5-1.3-7-0.9-10.5-0.2c-0.6,0.1-0.8,0-1.1-0.3c-1.7-1.4-3.4-2.8-5-4.3c-1.8-1.6-3.7-3.2-5.4-5c-1.2-1.3-1.8-3-1.8-4.7
	c0-1.9,0.7-3.6,1.7-5.2c1.4-2.2,3.3-4,5.4-5.6c3.6-2.7,7.6-4.9,11.7-6.7c3.1-1.3,6.3-2.2,9.7-2.5c2.7-0.3,5.3-0.2,7.8,0.7
	c3.1,1.1,4.3,3.6,3.2,6.7c-1,3-2.9,5.4-5.4,7.2c-4.7,3.5-9.9,5.5-15.9,5c-1.8-0.2-3.4-0.7-4.7-2.1c-0.3-0.3-0.7-0.4-1.1-0.5
	c0,0.4-0.1,0.8-0.1,1.3c0,0.3,0.2,0.5,0.3,0.8c1.2,1.8,3.1,2.8,5.2,3.3c2.5,0.5,5,0.4,7.5,0.1c2.9-0.4,5.6-1.1,8.2-2.4
	c2.7-1.3,5.1-3.1,7-5.5c2.3-2.9,3.8-6,3.8-9.9C62.8,13.1,60.4,10.4,57.2,9.1z M29.9,54.6c-0.5,3.7-2.5,6.5-5.8,8.1
	c-1,0.5-2,0.9-3.1,0.6c-0.9-0.2-1.2-0.7-1.3-1.5c-0.1-1.5,0.6-2.8,1.3-4c1.5-2.4,3.8-4,6.2-5.5c0.7-0.5,1.5-0.8,2.5-1.4
	C29.8,52.3,30.1,53.5,29.9,54.6z"/>
<g>
	<path class="st1" d="M16.9,25.9c-1.9,0-3.1,1.3-3.1,4v14.2c0,2.7,1.2,4,3.1,4c1.9,0,3.1-1.3,3.1-4V29.9
		C20.1,27.2,18.8,25.9,16.9,25.9z"/>
	<path class="st1" d="M49.4,25.9c-1.9,0-3.1,1.3-3.1,4v14.2c0,2.7,1.2,4,3.1,4c1.9,0,3.1-1.3,3.1-4V29.9
		C52.5,27.2,51.3,25.9,49.4,25.9z"/>
	<path class="st1" d="M64.1,14.6c0-0.3-0.1-0.5-0.7-0.5h-0.7v1h0.6C63.9,15.1,64.1,15,64.1,14.6z"/>
	<path class="st1" d="M63.3,13C62,13,61,14,61,15.3c0,1.4,1,2.4,2.3,2.4c1.3,0,2.3-1,2.3-2.4C65.6,14,64.6,13,63.3,13z M64.1,16.9
		l-0.9-1.4h-0.6v1.5h-0.5v-3.3h1.2c0.8,0,1.1,0.3,1.1,0.9c0,0.6-0.4,0.9-0.9,0.9l0.9,1.4H64.1z"/>
	<path class="st1" d="M74.9,6c-0.5-2.9-2.8-5.2-5.6-5.8c-0.1,0-0.3,0-0.4-0.1L68.8,0H6.2L6.1,0.1C3.2,0.6,0.8,2.8,0.2,5.7
		c0,0.1-0.1,0.2-0.2,0.4v62.7c0,0.1,0.1,0.1,0.1,0.2c0.7,3.1,2.6,5.1,5.7,5.9c0.1,0,0.2,0,0.2,0.1h62.8c0.1,0,0.1-0.1,0.2-0.1
		c3.1-0.7,5-2.6,5.8-5.7c0-0.1,0-0.2,0-0.3l0.1-0.1V6.2C75,6.1,74.9,6.1,74.9,6z M27.7,21.8H30v-7.2h5v7.2h4.1v4.8H35v17
		c0,2.8,1.1,4.1,4.1,3.9v4.7c-6.5,0.5-9.1-2.9-9.1-8V26.6h-2.3V21.8z M25,55.4c0,5.2-3,8.2-8.1,8.2s-8.1-3-8.1-8.2v-0.8h5v0.5
		c0,2.7,1.2,4,3.1,4c1.9,0,3.1-1.3,3.1-4v-4.8c-0.5,1.3-2.5,2.3-4.2,2.3c-4.8,0-7-2.9-7-8.2V29.6c0-5.3,2.2-8.2,7-8.2
		c1.8,0,3.8,1,4.4,2.5v-2H25V55.4z M57.5,62.1H27.7v-5h29.9V62.1z M57.5,52.2h-4.8v-2c-0.6,1.5-2.6,2.5-4.4,2.5c-4.8,0-7-2.9-7-8.2
		V29.6c0-5.3,2.2-8.2,7-8.2c1.7,0,3.7,1,4.2,2.3V11.4h5V52.2z M63.3,18.2c-1.6,0-2.9-1.2-2.9-2.8c0-1.6,1.3-2.8,2.9-2.8
		c1.5,0,2.8,1.2,2.8,2.8C66.1,16.9,64.8,18.2,63.3,18.2z"/>
</g>
</svg>
