<?xml version="1.0" encoding="utf-8"?>
<!-- Generator: Adobe Illustrator 26.3.1, SVG Export Plug-In . SVG Version: 6.00 Build 0)  -->
<svg version="1.1" xmlns="http://www.w3.org/2000/svg" xmlns:xlink="http://www.w3.org/1999/xlink" x="0px" y="0px"
	 viewBox="0 0 75 75" style="enable-background:new 0 0 75 75;" xml:space="preserve">
<style type="text/css">
	.st0{display:none;}
	.st1{display:inline;fill:#A54747;stroke:#000000;stroke-miterlimit:10;}
	.st2{fill:#FFFFFF;}
	.st3{display:none;fill:#2D2D2D;}
</style>
<g id="Ebene_2" class="st0">
	<rect x="-25.7" y="-11.9" class="st1" width="125.5" height="109.8"/>
</g>
<g id="Ebene_1">
	<g>
		<g>
			<g>
				<path class="st2" d="M74.9,6c-0.5-2.9-2.8-5.2-5.6-5.8c-0.1,0-0.3,0-0.4-0.1c0,0-0.1-0.1-0.1-0.1H6.2c0,0-0.1,0.1-0.1,0.1
					C3.2,0.6,0.8,2.8,0.2,5.7c0,0.1-0.1,0.2-0.2,0.4v62.7c0,0.1,0.1,0.1,0.1,0.2c0.7,3.1,2.6,5.1,5.7,5.9C5.9,74.9,6,74.9,6,75h62.8
					c0.1,0,0.1-0.1,0.2-0.1c3.1-0.7,5-2.6,5.8-5.7c0-0.1,0-0.2,0-0.3c0,0,0.1-0.1,0.1-0.1V6.2C75,6.1,74.9,6.1,74.9,6z M59,27
					c-1.9,2.4-4.3,4.2-7,5.5c-2.6,1.3-5.4,2-8.2,2.4c-2.5,0.4-5,0.5-7.5-0.1c-2.1-0.5-3.9-1.4-5.2-3.3c-0.2-0.2-0.3-0.5-0.3-0.8
					c0-0.4,0-0.8,0.1-1.3c0.4,0.2,0.8,0.3,1.1,0.5c1.3,1.3,2.9,1.9,4.7,2.1c6,0.5,11.2-1.5,15.9-5c2.5-1.8,4.4-4.2,5.4-7.2
					c1.1-3.2-0.1-5.6-3.2-6.7c-2.5-0.9-5.1-0.9-7.8-0.7c-3.4,0.4-6.5,1.3-9.7,2.5c-4.2,1.7-8.1,3.9-11.7,6.7c-2.1,1.6-4,3.4-5.4,5.6
					c-1,1.6-1.7,3.4-1.7,5.2c0,1.7,0.5,3.4,1.8,4.7c1.7,1.8,3.5,3.4,5.4,5c1.6,1.5,3.3,2.8,5,4.3c0.3,0.3,0.6,0.4,1.1,0.3
					c3.5-0.8,7-1.1,10.5,0.2c3.3,1.2,5.6,3.3,6.2,6.9c0.5,2.7-0.7,4.9-3.2,6.1c-0.3,0.2-0.8,0.1-1.2,0.1c-0.1-0.1-0.2-0.2-0.2-0.3
					c0.2-0.2,0.4-0.6,0.7-0.7c3.4-2.1,2.5-5.7-0.1-7.7c-2.1-1.6-4.5-2.3-7.1-2.3c-1.2,0-2.4,0.1-3.5,0.2c-0.3,0-0.6,0.2-0.8,0.2
					c0.2,1.5,0.7,3,0.6,4.4c-0.1,3.1-0.8,6.1-2.9,8.6c-1.8,2.2-4,3.8-6.8,4.5c-2,0.5-4.1,0.5-6.1,0c-1.6-0.4-2.7-2.5-2.9-4.1
					c-0.4-3.7,1.2-6.5,4-8.8c2.6-2.2,5.4-3.9,8.4-5.5c0.1-0.1,0.2-0.2,0.3-0.3c-2.7-1.9-5.3-3.8-8-5.7c-2.5-1.8-4.7-4-6.3-6.7
					c-1.6-2.7-1.5-5.4-0.2-8.2c1.8-3.9,4.5-6.9,7.8-9.6c3.3-2.6,6.9-4.8,10.6-6.5c3.7-1.7,7.5-3.3,11.5-4c4.8-0.8,9.6-0.8,14.1,1.2
					c3.2,1.4,5.6,4,5.6,8.1C62.8,21,61.3,24.1,59,27z"/>
			</g>
		</g>
		<g>
			<g>
				<path class="st2" d="M29.7,50.9c-1,0.6-1.8,0.9-2.5,1.4c-2.4,1.5-4.7,3.1-6.2,5.5c-0.8,1.2-1.4,2.5-1.3,4
					c0.1,0.8,0.4,1.3,1.3,1.5c1.2,0.3,2.2-0.1,3.1-0.6c3.3-1.7,5.3-4.4,5.8-8.1C30.1,53.5,29.8,52.3,29.7,50.9z"/>
			</g>
		</g>
		<path class="st3" d="M57.2,9.1c-4.6-2-9.4-2-14.1-1.2c-4,0.7-7.8,2.2-11.5,4c-3.8,1.8-7.4,3.9-10.6,6.5c-3.3,2.6-6.1,5.7-7.8,9.6
			c-1.3,2.8-1.3,5.5,0.2,8.2c1.6,2.7,3.8,4.8,6.3,6.7c2.6,1.9,5.3,3.8,8,5.7c-0.1,0.1-0.2,0.2-0.3,0.3c-2.9,1.6-5.8,3.3-8.4,5.5
			c-2.8,2.3-4.4,5.1-4,8.8c0.2,1.6,1.3,3.7,2.9,4.1c2,0.5,4.1,0.5,6.1,0c2.8-0.7,5-2.3,6.8-4.5c2-2.5,2.8-5.5,2.9-8.6
			c0-1.4-0.4-2.9-0.6-4.4c0.2-0.1,0.5-0.2,0.8-0.2c1.2-0.1,2.4-0.2,3.5-0.2c2.6,0,5,0.6,7.1,2.3c2.6,2,3.4,5.7,0.1,7.7
			c-0.3,0.2-0.4,0.5-0.7,0.7c0.1,0.1,0.2,0.2,0.2,0.3c0.4,0,0.9,0,1.2-0.1c2.6-1.2,3.7-3.5,3.2-6.1c-0.6-3.5-3-5.7-6.2-6.9
			c-3.5-1.3-7-0.9-10.5-0.2c-0.6,0.1-0.8,0-1.1-0.3c-1.7-1.4-3.4-2.8-5-4.3c-1.8-1.6-3.7-3.2-5.4-5c-1.2-1.3-1.8-3-1.8-4.7
			c0-1.9,0.7-3.6,1.7-5.2c1.4-2.2,3.3-4,5.4-5.6c3.6-2.7,7.6-4.9,11.7-6.7c3.1-1.3,6.3-2.2,9.7-2.5c2.7-0.3,5.3-0.2,7.8,0.7
			c3.1,1.1,4.3,3.6,3.2,6.7c-1,3-2.9,5.4-5.4,7.2c-4.7,3.5-9.9,5.5-15.9,5c-1.8-0.2-3.4-0.7-4.7-2.1c-0.3-0.3-0.7-0.4-1.1-0.5
			c0,0.4-0.1,0.8-0.1,1.3c0,0.3,0.2,0.5,0.3,0.8c1.2,1.8,3.1,2.8,5.2,3.3c2.5,0.5,5,0.4,7.5,0.1c2.9-0.4,5.6-1.1,8.2-2.4
			c2.7-1.3,5.1-3.1,7-5.5c2.3-2.9,3.8-6,3.8-9.9C62.8,13.1,60.4,10.4,57.2,9.1z M29.9,54.6c-0.5,3.7-2.5,6.5-5.8,8.1
			c-1,0.5-2,0.9-3.1,0.6c-0.9-0.2-1.2-0.7-1.3-1.5c-0.1-1.5,0.6-2.8,1.3-4c1.5-2.4,3.8-4,6.2-5.5c0.7-0.5,1.5-0.8,2.5-1.4
			C29.8,52.3,30.1,53.5,29.9,54.6z"/>
	</g>
</g>
</svg>
